<?xml version="1.0" encoding="utf-8"?>
<!-- Generator: Adobe Illustrator 26.5.0, SVG Export Plug-In . SVG Version: 6.00 Build 0)  -->
<svg version="1.1" id="Layer_2" xmlns="http://www.w3.org/2000/svg" xmlns:xlink="http://www.w3.org/1999/xlink" x="0px" y="0px"
	 viewBox="0 0 300 100" style="enable-background:new 0 0 300 100;" xml:space="preserve">
<style type="text/css">
	.st0{stroke:#000000;stroke-width:0.25;stroke-miterlimit:10;}
</style>
<path class="st0" d="M269.8,33.7l-0.1-9.9l7.6,0.1v-2l-17.5-0.1v2.2l7.6-0.1v9.9h-30.2l-6.1-9.9l12.8,0.1v-2l-16.3,0l7.3,11.8h-28.3
	l-5.1-12.3h-0.8l-5.1,12.3h-33.3V21.8h-2.2v11.9h-42l0-9.8l7.8,0.2v-2.2l-17.7-0.1l0,2.1l7.8,0v9.9H89l-5.1-12.3h-0.3L78,33.7H38.8
	V21.9h-2.1v11.8H15v2l137.3,51.9l139.2-51.8v-2.1H269.8z M36.7,42l-15.4-6h15.4V42z M200.9,25.7l3.4,8.1h-6.6L200.9,25.7z
	 M83.6,25.7l3.2,7.9h-6.5L83.6,25.7z M267.5,42.6L152.5,86.1L39,42.7V36h38.3l-3.8,9.3H76l3.8-9.3h7.7l3.9,9.3h2.4L89.8,36H116v9.3
	h2.2V36H160v9.3h15.1v-2.2l-12.8,0.1V36h32.2l-3.8,9.3h2.2l3.8-9.3h8.3l3.8,9.3h2.2l-4-9.3h28.8l4.7,7.4l-13.2-0.1v2h16.8l-5.7-9.3
	h28.8V42.6z M269.9,42v-6h15.5L269.9,42z"/>
</svg>
